HIERARCHY
ROOT Hips
{
	OFFSET 0.000000 0.000000 0.000000 
	CHANNELS 6 Xposition Yposition Zposition Zrotation Yrotation Xrotation
	JOINT LeftUpLeg
	{
		OFFSET 1.363060 -1.794630 0.839290 
		CHANNELS 3 Zrotation Yrotation Xrotation
		JOINT LeftLeg
		{
			OFFSET 2.448110 -6.726130 0.000000 
			CHANNELS 3 Zrotation Yrotation Xrotation
			JOINT LeftFoot
			{
				OFFSET 2.562200 -7.039590 0.000000 
				CHANNELS 3 Zrotation Yrotation Xrotation
				JOINT LeftToeBase
				{
					OFFSET 0.157640 -0.433110 2.322550 
					CHANNELS 3 Zrotation Yrotation Xrotation
					End Site
					{
						OFFSET 0.000000 0.000000 0.000000 
					}
				}
			}
		}
	}
	JOINT RightUpLeg
	{
		OFFSET -1.305520 -1.794630 0.839290 
		CHANNELS 3 Zrotation Yrotation Xrotation
		JOINT RightLeg
		{
			OFFSET -2.542530 -6.985550 0.000000 
			CHANNELS 3 Zrotation Yrotation Xrotation
			JOINT RightFoot
			{
				OFFSET -2.568260 -7.056230 0.000000 
				CHANNELS 3 Zrotation Yrotation Xrotation
				JOINT RightToeBase
				{
					OFFSET -0.164730 -0.452590 2.363150 
					CHANNELS 3 Zrotation Yrotation Xrotation
					End Site
					{
						OFFSET 0.000000 0.000000 0.000000 
					}
				}
			}
		}
	}
	JOINT Spine
	{
		OFFSET 0.028270 2.035590 -0.193380 
		CHANNELS 3 Zrotation Yrotation Xrotation
		JOINT Spine1
		{
			OFFSET 0.056720 2.048850 -0.042750 
			CHANNELS 3 Zrotation Yrotation Xrotation
			JOINT Neck1
			{
				OFFSET -0.054170 1.746240 0.172020 
				CHANNELS 3 Zrotation Yrotation Xrotation
				JOINT Head
				{
					OFFSET 0.104070 1.761360 -0.123970 
					CHANNELS 3 Zrotation Yrotation Xrotation
					End Site
					{
						OFFSET 0.000000 0.000000 0.000000 
					}
				}
			}
			JOINT LeftArm
			{
				OFFSET 3.362410 1.200890 -0.311210 
				CHANNELS 3 Zrotation Yrotation Xrotation
				JOINT LeftForeArm
				{
					OFFSET 4.983000 -0.000000 -0.000000 
					CHANNELS 3 Zrotation Yrotation Xrotation
					JOINT LeftHand
					{
						OFFSET 3.483560 -0.000000 -0.000000 
						CHANNELS 3 Zrotation Yrotation Xrotation
						JOINT LeftHandIndex1
						{
							OFFSET 0.715260 -0.000000 -0.000000 
							CHANNELS 3 Zrotation Yrotation Xrotation
							End Site
							{
								OFFSET 0.000000 0.000000 0.000000 
							}
						}
					}
				}
			}
			JOINT RightArm
			{
				OFFSET -3.136600 1.374050 -0.404650 
				CHANNELS 3 Zrotation Yrotation Xrotation
				JOINT RightForeArm
				{
					OFFSET -5.241900 -0.000000 -0.000000 
					CHANNELS 3 Zrotation Yrotation Xrotation
					JOINT RightHand
					{
						OFFSET -3.444170 -0.000000 -0.000000 
						CHANNELS 3 Zrotation Yrotation Xrotation
						JOINT RightHandIndex1
						{
							OFFSET -0.622530 -0.000000 -0.000000 
							CHANNELS 3 Zrotation Yrotation Xrotation
							End Site
							{
								OFFSET 0.000000 0.000000 0.000000 
							}
						}
					}
				}
			}
		}
	}
}
MOTION
Frames: 12
Frame Time: 0.041667
9.290857 17.416977 27.296003 -176.210042 -5.040894 -158.717494 -19.741471 -11.761644 -23.788692 -4.060045 13.522075 26.138675 -2.249676 10.270160 3.170666 0.568100 -4.827400 -13.416800 4.595643 23.447873 -34.918532 4.398276 -15.392257 19.606136 6.564732 -25.371883 8.118552 -0.233900 3.112500 -8.592200 1.348553 -1.041795 -4.739874 0.751340 -0.617965 0.337702 6.060677 2.312105 14.652397 -0.357500 1.015200 13.016700 -71.387466 -8.577918 39.496054 17.024238 -20.782925 -4.996180 -2.087649 -2.768124 -45.132253 -7.125000 0.000000 0.000000 62.507144 -12.264581 26.452867 -32.293837 34.901182 -13.826875 0.046949 2.529178 -16.593187 7.125000 0.000000 0.000000 
9.313500 17.418892 27.240014 -176.405381 -5.187846 -158.641635 -19.816587 -11.778315 -23.555229 -4.123251 13.378338 25.850753 -2.225592 10.230505 3.261602 0.586800 -4.904500 -13.636400 3.716324 23.755020 -34.508997 4.472071 -14.912432 18.419057 7.055876 -26.580965 7.680286 -0.238900 3.145600 -8.684500 1.358791 -1.041891 -4.733096 0.742785 -0.622343 0.401306 6.045473 2.193675 14.680460 -0.391800 0.967300 13.018800 -71.599959 -8.554579 40.027041 17.141539 -20.909701 -5.051930 -2.020190 -2.758831 -45.664556 -7.125000 0.000000 0.000000 62.351287 -12.173430 26.378890 -32.671627 35.184612 -14.106167 0.053861 2.507793 -16.561272 7.125000 0.000000 0.000000 
9.337496 17.419230 27.182673 -176.608389 -5.335026 -158.553439 -19.906934 -11.784585 -23.312161 -4.190528 13.224536 25.543925 -2.199740 10.183664 3.327740 0.599500 -4.956700 -13.785200 2.866682 24.078037 -34.218922 4.520067 -14.524450 17.425998 7.506265 -27.604646 7.080697 -0.238200 3.141200 -8.672000 1.372762 -1.045832 -4.725337 0.758993 -0.629154 0.493118 6.025393 2.116264 14.704234 -0.419000 0.936700 13.075600 -71.836081 -8.622522 40.416975 17.234734 -20.996422 -5.093538 -1.955968 -2.767309 -46.069830 -7.125000 0.000000 0.000000 62.145920 -11.902070 26.234819 -32.916480 35.355769 -14.288568 0.053135 2.499795 -16.441260 7.125000 0.000000 0.000000 
9.365321 17.421708 27.120938 -176.842233 -5.436491 -158.446814 -20.026979 -11.759500 -23.081550 -4.255178 13.075149 25.250245 -2.180606 10.147824 3.356028 0.606500 -4.984900 -13.865400 2.150389 24.305064 -33.907859 4.565062 -14.120058 16.464719 7.790868 -28.280549 6.835309 -0.228300 3.075200 -8.488100 1.388427 -1.056242 -4.731706 0.817693 -0.632925 0.491528 6.026429 2.018763 14.741822 -0.429200 0.887700 13.056000 -72.065176 -8.495609 40.936501 17.291026 -21.067638 -5.121871 -1.919348 -2.741188 -46.331240 -7.125000 0.000000 0.000000 62.013896 -11.851013 26.252654 -33.281451 35.619866 -14.563289 0.067373 2.497643 -16.535414 7.125000 0.000000 0.000000 
9.392809 17.420469 27.059992 -177.058861 -5.550090 -158.342873 -20.132181 -11.737566 -22.852275 -4.315447 12.929736 24.967458 -2.159495 10.110041 3.423058 0.619700 -5.037800 -14.016300 1.381898 24.628531 -33.630057 4.588085 -13.767223 15.576883 8.147871 -29.091876 6.409976 -0.226700 3.064900 -8.459400 1.401365 -1.060354 -4.731321 0.848813 -0.636808 0.537087 6.018071 1.929307 14.774398 -0.448100 0.847600 13.068300 -72.275441 -8.452576 41.436437 17.349768 -21.133778 -5.151097 -1.885629 -2.733947 -46.578943 -7.125000 0.000000 0.000000 61.877026 -11.702497 26.206116 -33.589734 35.837186 -14.793963 0.077879 2.487644 -16.557015 7.125000 0.000000 0.000000 
9.422325 17.417991 26.997356 -177.277571 -5.651969 -158.234113 -20.240363 -11.700448 -22.626051 -4.372061 12.787005 24.695007 -2.139323 10.074026 3.497801 0.635100 -5.098800 -14.190700 0.658824 24.953645 -33.392361 4.598354 -13.460521 14.792594 8.467608 -29.804850 6.001244 -0.227300 3.068700 -8.470100 1.414567 -1.063784 -4.731711 0.887387 -0.639851 0.581601 6.010163 1.848081 14.807732 -0.464300 0.809900 13.080100 -72.479466 -8.401775 41.953650 17.393588 -21.186985 -5.174546 -1.869045 -2.735423 -46.707122 -7.125000 0.000000 0.000000 61.754512 -11.541076 26.171412 -33.881905 36.039754 -15.012904 0.090109 2.479237 -16.595484 7.125000 0.000000 0.000000 
9.453643 17.414386 26.933255 -177.498703 -5.740304 -158.120680 -20.348821 -11.650498 -22.412453 -4.421535 12.656328 24.453388 -2.118066 10.032688 3.565129 0.653400 -5.170600 -14.395800 -0.010562 25.268783 -33.171757 4.600140 -13.181048 14.077551 8.757362 -30.446124 5.631921 -0.231200 3.094700 -8.542600 1.427436 -1.065383 -4.732789 0.929438 -0.641238 0.622838 6.002894 1.773237 14.841917 -0.478400 0.774300 13.089800 -72.673902 -8.337749 42.489745 17.426723 -21.232530 -5.194412 -1.869705 -2.746575 -46.722470 -7.125000 0.000000 0.000000 61.652316 -11.372060 26.149638 -34.160887 36.229880 -15.221376 0.103750 2.470116 -16.648179 7.125000 0.000000 0.000000 
9.487101 17.409203 26.867803 -177.716041 -5.817997 -158.007188 -20.451895 -11.591222 -22.204543 -4.465341 12.533024 24.232934 -2.096494 9.987792 3.619816 0.674800 -5.252900 -14.631400 -0.613681 25.562959 -32.985349 4.594699 -12.942636 13.460137 9.016531 -31.008551 5.278386 -0.240700 3.157200 -8.716800 1.439885 -1.063732 -4.733856 0.971133 -0.640557 0.661985 5.994015 1.707728 14.873784 -0.492100 0.742300 13.095900 -72.859074 -8.268116 43.032962 17.450552 -21.270080 -5.210649 -1.882428 -2.764347 -46.636956 -7.125000 0.000000 0.000000 61.568577 -11.181976 26.133034 -34.417049 36.401211 -15.412595 0.116980 2.462127 -16.698928 7.125000 0.000000 0.000000 
9.522475 17.402669 26.801337 -177.931339 -5.880815 -157.894585 -20.551554 -11.524296 -22.002671 -4.502907 12.419636 24.039471 -2.075016 9.937628 3.641627 0.697900 -5.340100 -14.881100 -1.143515 25.828470 -32.830275 4.585102 -12.742574 12.938447 9.243920 -31.485589 4.933112 -0.252700 3.234600 -8.932400 1.452708 -1.058675 -4.735151 1.020688 -0.636995 0.694229 5.983748 1.651820 14.902459 -0.504300 0.713300 13.096400 -73.042783 -8.183222 43.562027 17.471562 -21.307193 -5.226570 -1.902667 -2.782116 -46.475002 -7.125000 0.000000 0.000000 61.496170 -10.977186 26.130802 -34.656917 36.558340 -15.591328 0.129400 2.456009 -16.747108 7.125000 0.000000 0.000000 
9.559989 17.394446 26.733857 -178.144164 -5.930166 -157.785391 -20.646174 -11.457243 -21.808488 -4.533403 12.319497 23.878693 -2.055440 9.885442 3.617901 0.722900 -5.432800 -15.147300 -1.587251 26.045300 -32.705706 4.573641 -12.577054 12.508961 9.436318 -31.874982 4.615461 -0.269500 3.339200 -9.224600 1.465113 -1.048293 -4.736832 1.071856 -0.629464 0.715968 5.969890 1.605175 14.927767 -0.518800 0.687900 13.089800 -73.222004 -8.082980 44.062410 17.488922 -21.341570 -5.240638 -1.923211 -2.794572 -46.266795 -7.125000 0.000000 0.000000 61.439776 -10.751580 26.139362 -34.868731 36.692825 -15.747884 0.140843 2.451219 -16.785425 7.125000 0.000000 0.000000 
9.599643 17.384419 26.665362 -178.352294 -5.963706 -157.678616 -20.733766 -11.388594 -21.622651 -4.555622 12.234417 23.755753 -2.039172 9.834165 3.542114 0.750300 -5.532600 -15.434200 -1.934486 26.202868 -32.611201 4.563053 -12.443043 12.167898 9.589273 -32.170541 4.340948 -0.288900 3.456500 -9.552400 1.477808 -1.032416 -4.738663 1.129708 -0.617813 0.727691 5.953633 1.569927 14.947567 -0.532700 0.666300 13.075700 -73.399390 -7.968420 44.523584 17.504520 -21.374732 -5.253761 -1.941520 -2.798863 -46.029649 -7.125000 0.000000 0.000000 61.392087 -10.503794 26.167170 -35.053867 36.805582 -15.882865 0.151279 2.447537 -16.816681 7.125000 0.000000 0.000000 
9.641663 17.372478 26.595742 -178.555023 -5.982868 -157.577996 -20.813723 -11.319446 -21.446603 -4.568630 12.167014 23.676305 -2.027069 9.786050 3.416604 0.779500 -5.636900 -15.734500 -2.173895 26.284777 -32.543522 4.554545 -12.336995 11.912226 9.701800 -32.374516 4.128443 -0.309800 3.578000 -9.892500 1.489819 -1.009209 -4.739259 1.187329 -0.601661 0.739533 5.934661 1.543809 14.964046 -0.547100 0.648700 13.062900 -73.568276 -7.849001 44.927208 17.520682 -21.407510 -5.266229 -1.951347 -2.788907 -45.789970 -7.125000 0.000000 0.000000 61.354631 -10.220780 26.212004 -35.205203 36.892556 -15.990661 0.161342 2.445319 -16.837165 7.125000 0.000000 0.000000 
